<?xml version="1.0" encoding="UTF-8" standalone="no"?>

<svg xmlns="http://www.w3.org/2000/svg" version="1.1" xmlns:xlink="http://www.w3.org/1999/xlink"
    xmlns:svgjs="http://svgjs.dev/svgjs" width="2000" height="1500" viewBox="0 0 2000 1500">
    <rect width="2000" height="1500" fill="#000000"></rect>
    <g transform="matrix(0.75,0,0,0.75,249.090909090909,278.98548387096776)">
        <svg viewBox="0 0 396 248" data-background-color="#000000"
            preserveAspectRatio="xMidYMid meet" height="1252" width="2000"
            xmlns="http://www.w3.org/2000/svg" xmlns:xlink="http://www.w3.org/1999/xlink">
            <g id="tight-bounds" transform="matrix(1,0,0,1,0.2400000000000091,0.4000000000000057)">
                <svg viewBox="0 0 395.52 247.2" height="247.2" width="395.52">
                    <g>
                        <svg></svg>
                    </g>
                    <g>
                        <svg viewBox="0 0 395.52 247.2" height="247.2" width="395.52">
                            <g transform="matrix(1,0,0,1,75.54432,59.789675924987826)">
                                <svg viewBox="0 0 244.43135999999998 127.62064815002434"
                                    height="127.62064815002434" width="244.43135999999998">
                                    <g>
                                        <svg viewBox="0 0 244.43135999999998 127.62064815002434"
                                            height="127.62064815002434" width="244.43135999999998">
                                            <g>
                                                <svg viewBox="0 0 244.43136 127.62064815002435"
                                                    height="127.62064815002434"
                                                    width="244.43135999999998">
                                                    <g>
                                                        <svg
                                                            viewBox="0 0 244.43136 127.62064815002435"
                                                            height="127.62064815002435"
                                                            width="244.43136">
                                                            <g id="textblocktransform">
                                                                <svg
                                                                    viewBox="0 0 244.43136 127.62064815002435"
                                                                    height="127.62064815002435"
                                                                    width="244.43136" id="textblock">
                                                                    <g>
                                                                        <svg
                                                                            viewBox="0 0 244.43136 68.83247943990665"
                                                                            height="68.83247943990665"
                                                                            width="244.43136">
                                                                            <g
                                                                                transform="matrix(1,0,0,1,0,0)">
                                                                                <svg
                                                                                    width="244.43136"
                                                                                    viewBox="5.75 -35.7 124.55000000000001 36.2"
                                                                                    height="68.83247943990665"
                                                                                    data-palette-color="#c8bc50">
                                                                                    <g
                                                                                        class="wordmark-text-0"
                                                                                        data-fill-palette-color="primary"
                                                                                        id="text-0">
                                                                                        <path
                                                                                            d="M35.85-35L39.45-35 39.45 0 36.05 0 36.05-32.1 35.75-32.1 23.65-8.9 22.1-8.9 8.35-29.35 8.05-29.35 9.15 0 5.75 0 7-35.7 8-35.7 23.75-12.3 24.05-12.3 35.85-35ZM52.45 0L52.45-35 59.15-35Q64.45-35 67.37-32.77 70.3-30.55 70.3-26.55L70.3-26.55Q70.3-23.45 68.47-21.4 66.65-19.35 63.2-18.65L63.2-18.65 63.2-18.35Q66.5-17.7 68.6-15.25 70.7-12.8 71.75-9.2L71.75-9.2Q72.7-5.9 73.62-4.08 74.55-2.25 75.67-1.45 76.8-0.65 78.35-0.3L78.35-0.3 78.35 0 76.3 0Q74.1 0 72.67-0.8 71.25-1.6 70.25-3.5 69.25-5.4 68.35-8.75L68.35-8.75Q66.9-13.9 64.5-16.05 62.1-18.2 58.65-18.2L58.65-18.2 58.35-18.2 58.35-19.1 58.65-19.1Q66.7-19.1 66.7-26.5L66.7-26.5Q66.7-33.8 59.15-33.8L59.15-33.8 55.85-33.8 55.85 0 52.45 0ZM82.05-2.1L82.05-2.1Q82.05-3.25 82.8-3.98 83.55-4.7 84.65-4.7L84.65-4.7Q85.8-4.7 86.52-3.98 87.25-3.25 87.25-2.1L87.25-2.1Q87.25-1 86.52-0.25 85.8 0.5 84.65 0.5L84.65 0.5Q83.55 0.5 82.8-0.25 82.05-1 82.05-2.1Z"
                                                                                            fill="#c8bc50"
                                                                                            data-fill-palette-color="primary"></path>
                                                                                        <path
                                                                                            d="M118.35 0L114.75 0 114.75-14.8 102.35-35 106.15-35 117.3-16.7 117.6-16.7 126.5-35 130.3-35 118.35-15.5 118.35 0Z"
                                                                                            fill="#ffffff"
                                                                                            data-fill-palette-color="secondary"></path>
                                                                                    </g>
                                                                                </svg>
                                                                            </g>
                                                                        </svg>
                                                                    </g>
                                                                    <g
                                                                        transform="matrix(1,0,0,1,0,85.08217585616205)">
                                                                        <svg
                                                                            viewBox="0 0 244.43136 42.538472293862306"
                                                                            height="42.538472293862306"
                                                                            width="244.43136">
                                                                            <g
                                                                                transform="matrix(1,0,0,1,0,0)">
                                                                                <svg
                                                                                    width="244.43136"
                                                                                    viewBox="0.17 -40.6 236.52 41.160000000000004"
                                                                                    height="42.538472293862306"
                                                                                    data-palette-color="#ffffff">
                                                                                    <path
                                                                                        d="M7.79-34.18L18.48-5.86 24.76-26.27 24.51-23.02 20.26-34.18 17.21-34.74 17.21-36.82 28.64-36.82 28.66-34.74 25.1-34.18 34.59-6.03Q35.89-9.5 37.01-13.04L37.01-13.04 41.41-27.2Q42.53-30.71 43.82-34.18L43.82-34.18 40.31-34.74 40.31-36.82 49.68-36.82 49.68-34.74 46.97-34.28 35.16 0 32.52 0 24.8-22.17 26-21.9 19.04 0 16.41 0 2.95-34.18 0.17-34.74 0.17-36.82 10.86-36.82 11.04-34.74 7.79-34.18ZM75.49-5.59L75.49-5.59 76.88-4Q73-0.51 69.36 0.37L69.36 0.37Q68.56 0.56 67.78 0.56L67.78 0.56Q62.41 0.56 59.04-2.83L59.04-2.83Q55.69-6.15 55.69-11.5L55.69-11.5Q55.69-16.82 58.84-20.61L58.84-20.61Q62.31-24.73 67.85-24.73L67.85-24.73Q71.68-24.73 74.32-21.97L74.32-21.97Q77.13-19.09 77.13-14.48L77.13-14.48 75.98-13.45 60.06-12.3Q60.11-7.86 62.94-5.2L62.94-5.2Q65.48-2.86 68.85-2.86 72.22-2.86 75.49-5.59ZM60.23-14.6L60.23-14.6 72.78-15.75Q72.61-19.8 69.66-21.31L69.66-21.31Q68.61-21.85 66.97-21.85 65.34-21.85 64.05-21.04 62.77-20.24 61.94-19.09L61.94-19.09Q60.36-16.92 60.23-14.6ZM87.07-3.17L87.07-36.21 83.89-36.82 83.89-38.79 91.05-40.6 91.05-21.56Q93.44-23.24 95.65-23.99 97.86-24.73 99.85-24.73 101.84-24.73 103.74-23.82 105.65-22.9 106.97-21.29L106.97-21.29Q109.72-17.92 109.72-12.67L109.72-12.67Q109.72-7.23 106.48-3.52L106.48-3.52Q102.96 0.56 96.96 0.56L96.96 0.56Q93.1 0.56 89.71-1.29L89.71-1.29Q88.19-2.1 87.07-3.17L87.07-3.17ZM98.1-21.56L98.1-21.56Q94.81-21.56 91.05-19.04L91.05-19.04 91.05-5.1Q93.15-2.29 97.71-2.29L97.71-2.29Q101.23-2.29 103.43-4.98L103.43-4.98Q105.48-7.47 105.48-11.21L105.48-11.21Q105.48-18.09 101.45-20.65L101.45-20.65Q100.06-21.56 98.1-21.56ZM143.77-2.64L143.77-34.18 139.98-34.74 139.98-36.82 155.66-36.82Q165.35-36.82 170.74-32.08L170.74-32.08Q176.02-27.42 176.02-19.31L176.02-19.31Q176.02-13.48 173.31-8.89L173.31-8.89Q170.82-4.66 166.4-2.29L166.4-2.29Q162.1 0 157.14 0L157.14 0 139.98 0 139.98-2.08 143.77-2.64ZM155.53-33.86L148.28-33.86 148.28-2.93 157.1-2.93Q163.22-2.93 167.25-6.79L167.25-6.79Q171.4-10.82 171.4-17.31L171.4-17.31Q171.4-29.74 162.71-32.81L162.71-32.81Q159.71-33.86 155.53-33.86L155.53-33.86ZM203.97-5.59L203.97-5.59 205.37-4Q201.48-0.51 197.85 0.37L197.85 0.37Q197.04 0.56 196.26 0.56L196.26 0.56Q190.89 0.56 187.52-2.83L187.52-2.83Q184.17-6.15 184.17-11.5L184.17-11.5Q184.17-16.82 187.32-20.61L187.32-20.61Q190.79-24.73 196.33-24.73L196.33-24.73Q200.17-24.73 202.8-21.97L202.8-21.97Q205.61-19.09 205.61-14.48L205.61-14.48 204.46-13.45 188.55-12.3Q188.59-7.86 191.43-5.2L191.43-5.2Q193.96-2.86 197.33-2.86 200.7-2.86 203.97-5.59ZM188.72-14.6L188.72-14.6 201.26-15.75Q201.09-19.8 198.14-21.31L198.14-21.31Q197.09-21.85 195.45-21.85 193.82-21.85 192.54-21.04 191.26-20.24 190.42-19.09L190.42-19.09Q188.84-16.92 188.72-14.6ZM234.5-21.56L225.44 0 222.05 0 212.89-21.56 210.69-22.12 210.69-24.15 220.19-24.15 220.19-22.12 217.38-21.56 224.66-3.96 231.52-21.68 228.76-22.12 228.76-24.15 236.69-24.15 236.69-22.12 234.5-21.56Z"
                                                                                        opacity="1"
                                                                                        transform="matrix(1,0,0,1,0,0)"
                                                                                        fill="#ffffff"
                                                                                        class="slogan-text-1"
                                                                                        data-fill-palette-color="secondary"
                                                                                        id="text-1"></path>
                                                                                </svg>
                                                                            </g>
                                                                        </svg>
                                                                    </g>
                                                                </svg>
                                                            </g>
                                                        </svg>
                                                    </g>
                                                </svg>
                                            </g>
                                        </svg>
                                    </g>
                                </svg>
                            </g>
                            <path
                                d="M247.559 53.79L247.559 0 0.359 0 0.359 247.2 247.559 247.2 247.559 193.41 241.352 193.41 241.352 240.993 6.567 240.993 6.567 6.207 241.352 6.207 241.352 53.79Z"
                                fill="#ffffff" stroke="transparent"
                                data-fill-palette-color="tertiary"></path>
                        </svg>
                    </g>
                    <defs></defs>
                </svg>
                <rect width="395.52" height="247.2" fill="none" stroke="none" visibility="hidden"></rect>
            </g>
        </svg>
    </g>
</svg>